<?xml version="1.0" standalone="no"?>
<!DOCTYPE svg PUBLIC "-//W3C//DTD SVG 20010904//EN"
 "http://www.w3.org/TR/2001/REC-SVG-20010904/DTD/svg10.dtd">
<svg version="1.0" xmlns="http://www.w3.org/2000/svg"
 width="2440.000000pt" height="2440.000000pt" viewBox="0 0 2440.000000 2440.000000"
 preserveAspectRatio="xMidYMid meet">

<g transform="translate(0.000000,2440.000000) scale(0.100000,-0.100000)"
fill="#000000" stroke="none">
<path d="M15080 21796 c0 -21 -5 -26 -25 -26 -20 0 -25 -5 -25 -24 0 -18 -6
-25 -22 -28 -15 -2 -24 -11 -26 -25 -2 -15 -10 -23 -22 -23 -13 0 -20 -8 -22
-27 -2 -20 -9 -29 -25 -31 -16 -2 -23 -12 -28 -42 -5 -30 -12 -40 -28 -42 -16
-2 -23 -11 -25 -30 -2 -20 -9 -28 -22 -28 -12 0 -20 -8 -22 -22 -2 -15 -11
-24 -25 -26 -17 -3 -23 -10 -23 -28 0 -19 -5 -24 -25 -24 -20 0 -25 -5 -25
-25 0 -20 -5 -25 -25 -25 -20 0 -25 -5 -25 -25 0 -18 -5 -25 -19 -25 -16 0
-21 -9 -27 -45 -5 -39 -10 -45 -30 -45 -19 0 -24 -5 -24 -25 0 -20 -5 -25 -25
-25 -20 0 -25 -5 -25 -25 0 -18 -5 -25 -19 -25 -13 0 -21 -8 -23 -22 -2 -15
-11 -24 -25 -26 -17 -3 -23 -10 -23 -28 0 -19 -5 -24 -24 -24 -20 0 -25 -6
-30 -45 -6 -36 -11 -45 -27 -45 -14 0 -19 -7 -19 -25 0 -20 -5 -25 -25 -25
-20 0 -25 -5 -25 -25 0 -20 -5 -25 -25 -25 -20 0 -25 -5 -25 -25 0 -20 -5 -25
-25 -25 -20 0 -25 -5 -25 -25 0 -18 -5 -25 -19 -25 -13 0 -21 -8 -23 -22 -2
-15 -11 -24 -24 -26 -17 -2 -23 -12 -28 -47 -6 -35 -11 -44 -29 -47 -14 -2
-23 -11 -25 -25 -2 -15 -10 -23 -23 -23 -14 0 -19 -7 -19 -25 0 -20 -5 -25
-25 -25 -20 0 -25 -5 -25 -25 0 -20 -5 -25 -25 -25 -20 0 -25 -5 -25 -25 0
-20 -5 -25 -25 -25 -20 0 -25 -5 -25 -25 0 -18 -5 -25 -19 -25 -16 0 -21 -9
-26 -44 -6 -36 -12 -46 -29 -48 -13 -2 -22 -11 -24 -25 -2 -14 -11 -23 -25
-25 -14 -2 -23 -11 -25 -25 -2 -15 -10 -23 -23 -23 -14 0 -19 -7 -19 -25 0
-20 -5 -25 -24 -25 -19 0 -25 -6 -28 -27 -2 -20 -9 -29 -25 -31 -16 -2 -23
-12 -28 -43 -5 -29 -11 -39 -26 -39 -14 0 -19 -7 -19 -30 0 -25 -4 -30 -25
-30 -20 0 -25 -5 -25 -25 0 -20 -5 -25 -25 -25 -20 0 -25 -5 -25 -25 0 -20 -5
-25 -25 -25 -20 0 -25 -5 -25 -25 0 -18 -5 -25 -19 -25 -13 0 -21 -8 -23 -22
-2 -15 -11 -24 -25 -26 -18 -3 -23 -12 -29 -47 -5 -35 -11 -45 -28 -47 -13 -2
-22 -11 -24 -25 -2 -15 -10 -23 -23 -23 -14 0 -19 -7 -19 -25 0 -20 -5 -25
-25 -25 -20 0 -25 -5 -25 -25 0 -20 -5 -25 -25 -25 -20 0 -25 -5 -25 -25 0
-20 -5 -25 -25 -25 -23 0 -25 -4 -25 -45 0 -41 -2 -45 -25 -45 -20 0 -25 -5
-25 -25 0 -20 -5 -25 -25 -25 -20 0 -25 -5 -25 -24 0 -18 -6 -25 -22 -28 -15
-2 -24 -11 -26 -25 -2 -15 -10 -23 -23 -23 -14 0 -19 -7 -19 -25 0 -20 -5 -25
-25 -25 -20 0 -25 -5 -25 -25 0 -20 -5 -25 -24 -25 -20 0 -25 -6 -30 -45 -6
-36 -11 -45 -27 -45 -14 0 -19 -7 -19 -25 0 -20 -5 -25 -25 -25 -20 0 -25 -5
-25 -25 0 -20 -5 -25 -25 -25 -20 0 -25 -5 -25 -24 0 -18 -6 -25 -22 -28 -15
-2 -24 -11 -26 -25 -2 -15 -10 -23 -23 -23 -14 0 -19 -7 -19 -25 0 -20 -5 -25
-24 -25 -20 0 -25 -6 -30 -45 -6 -36 -11 -45 -27 -45 -14 0 -19 -7 -19 -25 0
-20 -5 -25 -25 -25 -20 0 -25 -5 -25 -25 0 -20 -5 -25 -25 -25 -20 0 -25 -5
-25 -25 0 -20 -5 -25 -25 -25 -21 0 -25 -5 -25 -30 0 -25 -4 -30 -25 -30 -23
0 -25 -4 -25 -45 0 -41 -2 -45 -25 -45 -20 0 -25 -5 -25 -25 0 -20 -5 -25 -25
-25 -20 0 -25 -5 -25 -25 0 -20 -5 -25 -25 -25 -20 0 -25 -5 -25 -25 0 -18 -5
-25 -19 -25 -13 0 -21 -8 -23 -22 -2 -15 -11 -24 -25 -26 -17 -3 -23 -10 -23
-28 0 -19 -5 -24 -24 -24 -20 0 -25 -6 -30 -45 -6 -36 -11 -45 -27 -45 -14 0
-19 -7 -19 -25 0 -20 -5 -25 -25 -25 -20 0 -25 -5 -25 -25 0 -20 -5 -25 -25
-25 -20 0 -25 -5 -25 -25 0 -18 -5 -25 -19 -25 -13 0 -21 -8 -23 -22 -2 -15
-11 -24 -25 -26 -17 -3 -23 -10 -23 -28 0 -19 -5 -24 -24 -24 -20 0 -25 -6
-30 -45 -6 -36 -11 -45 -27 -45 -14 0 -19 -7 -19 -25 0 -20 -5 -25 -25 -25
-20 0 -25 -5 -25 -25 0 -20 -5 -25 -25 -25 -20 0 -25 -5 -25 -25 0 -20 -5 -25
-25 -25 -20 0 -25 -5 -25 -25 0 -18 -5 -25 -19 -25 -16 0 -21 -9 -26 -44 -6
-36 -12 -46 -29 -48 -13 -2 -22 -11 -24 -25 -2 -14 -11 -23 -25 -25 -14 -2
-23 -11 -25 -25 -2 -15 -10 -23 -23 -23 -14 0 -19 -7 -19 -25 0 -20 -5 -25
-25 -25 -20 0 -25 -5 -25 -25 0 -20 -5 -25 -25 -25 -20 0 -25 -5 -25 -25 0
-20 -5 -25 -25 -25 -23 0 -25 -4 -25 -45 0 -41 -2 -45 -25 -45 -20 0 -25 -5
-25 -24 0 -18 -6 -25 -22 -28 -15 -2 -24 -11 -26 -25 -2 -14 -11 -23 -25 -25
-16 -2 -23 -11 -25 -30 -2 -20 -9 -28 -22 -28 -12 0 -20 -8 -22 -22 -2 -15
-11 -24 -25 -26 -18 -3 -23 -12 -29 -48 -5 -38 -10 -44 -30 -44 -19 0 -24 -5
-24 -25 0 -18 -5 -25 -19 -25 -13 0 -21 -8 -23 -22 -2 -15 -11 -24 -25 -26
-17 -3 -23 -10 -23 -28 0 -19 -5 -24 -25 -24 -20 0 -25 -5 -25 -25 0 -20 -5
-25 -25 -25 -20 0 -25 -5 -25 -25 0 -18 -5 -25 -19 -25 -16 0 -21 -9 -27 -45
-5 -39 -10 -45 -30 -45 -19 0 -24 -5 -24 -25 0 -20 -5 -25 -25 -25 -20 0 -25
-5 -25 -25 0 -18 -5 -25 -20 -25 -15 0 -20 -7 -20 -25 0 -20 -5 -25 -25 -25
-20 0 -25 -5 -25 -25 0 -20 -5 -25 -25 -25 -20 0 -25 -5 -25 -25 0 -20 -5 -25
-25 -25 -20 0 -25 -5 -25 -25 0 -20 -5 -25 -25 -25 l-25 0 0 1150 c0 1110 -1
1150 -18 1150 -18 0 -19 17 -25 257 -4 141 -7 316 -7 390 0 124 -1 133 -19
133 -15 0 -20 -10 -26 -50 -6 -40 -11 -50 -26 -50 -15 0 -19 -7 -19 -32 0 -67
-12 -108 -30 -108 -13 0 -19 -12 -24 -50 -5 -41 -10 -50 -26 -50 -17 0 -20 -7
-20 -50 0 -47 -2 -50 -25 -50 -22 0 -25 -4 -25 -39 0 -67 -11 -101 -31 -101
-16 0 -19 -8 -19 -50 0 -47 -2 -50 -25 -50 -24 0 -25 -3 -25 -55 0 -47 -3 -55
-19 -55 -20 0 -31 -34 -31 -101 0 -35 -3 -39 -25 -39 -23 0 -25 -3 -25 -50 0
-42 -3 -50 -19 -50 -19 0 -31 -39 -31 -107 0 -26 -4 -33 -19 -33 -15 0 -20
-10 -26 -50 -5 -40 -11 -50 -25 -50 -15 0 -19 -9 -22 -47 -3 -41 -6 -48 -25
-51 -19 -3 -23 -10 -23 -41 0 -67 -11 -101 -31 -101 -16 0 -19 -8 -19 -50 0
-47 -2 -50 -25 -50 -23 0 -25 -3 -25 -50 0 -47 -2 -50 -25 -50 -24 0 -25 -2
-25 -70 0 -68 -1 -70 -25 -70 -23 0 -25 -3 -25 -50 0 -43 -3 -50 -19 -50 -15
0 -20 -10 -26 -50 -5 -39 -11 -50 -25 -50 -18 0 -30 -41 -30 -107 0 -26 -4
-33 -19 -33 -15 0 -20 -10 -25 -50 -5 -41 -10 -50 -26 -50 -17 0 -20 -7 -20
-50 0 -47 -2 -50 -25 -50 -23 0 -25 -3 -25 -50 0 -47 -2 -50 -25 -50 -24 0
-25 -2 -25 -70 0 -68 -1 -70 -25 -70 -23 0 -25 -3 -25 -49 0 -44 -3 -50 -22
-53 -20 -3 -23 -10 -26 -55 -2 -44 -6 -53 -21 -53 -20 0 -31 -35 -31 -101 0
-32 -4 -39 -19 -39 -15 0 -20 -10 -26 -50 -5 -40 -11 -50 -25 -50 -15 0 -19
-9 -22 -47 -3 -41 -6 -48 -25 -51 -18 -3 -23 -10 -23 -35 0 -68 -12 -107 -31
-107 -16 0 -19 -8 -19 -50 0 -47 -2 -50 -25 -50 -23 0 -25 -3 -25 -50 0 -47
-2 -50 -25 -50 -24 0 -25 -2 -25 -70 0 -68 -1 -70 -25 -70 -23 0 -25 -3 -25
-50 0 -43 -3 -50 -20 -50 -16 0 -21 -9 -26 -50 -5 -40 -10 -50 -25 -50 -15 0
-19 -7 -19 -32 0 -67 -12 -108 -30 -108 -14 0 -20 -11 -25 -50 -6 -40 -11 -50
-26 -50 -14 0 -19 -7 -19 -25 0 -20 -5 -25 -25 -25 l-25 0 0 133 c0 72 -3 183
-7 245 -5 100 -8 112 -24 112 -18 0 -19 17 -21 293 l-3 292 -22 3 c-20 3 -23
-1 -23 -27 0 -24 -4 -31 -19 -31 -22 0 -31 -35 -31 -126 0 -56 -2 -64 -19 -64
-21 0 -31 -40 -31 -132 0 -50 -3 -58 -19 -58 -21 0 -31 -40 -31 -132 0 -50 -3
-58 -19 -58 -14 0 -20 -10 -25 -46 -3 -26 -6 -62 -6 -80 0 -27 -4 -34 -19 -34
-16 0 -19 -11 -26 -95 -6 -83 -9 -95 -25 -95 -17 0 -20 -9 -22 -72 -3 -67 -5
-73 -25 -76 -22 -3 -23 -8 -23 -98 0 -94 0 -94 -25 -94 -25 0 -25 0 -25 -94 0
-90 -1 -95 -22 -98 -21 -3 -23 -9 -26 -80 -2 -68 -5 -78 -21 -78 -22 0 -31
-35 -31 -126 0 -56 -2 -64 -19 -64 -21 0 -31 -40 -31 -132 0 -50 -3 -58 -19
-58 -20 0 -31 -39 -31 -112 0 -31 -4 -38 -20 -38 -18 0 -20 -7 -20 -57 0 -92
-10 -133 -31 -133 -16 0 -19 -10 -21 -77 -3 -72 -5 -78 -25 -81 -21 -3 -22 -9
-25 -95 -3 -87 -4 -92 -25 -95 -21 -3 -23 -9 -23 -66 0 -91 -9 -126 -31 -126
-17 0 -19 -8 -19 -75 0 -73 -1 -75 -25 -75 -20 0 -25 -5 -25 -25 0 -23 3 -25
50 -25 47 0 50 2 50 25 0 23 4 25 45 25 38 0 45 -3 45 -20 0 -13 -7 -20 -20
-20 -15 0 -20 -7 -20 -25 0 -20 -5 -25 -25 -25 -20 0 -25 -5 -25 -24 0 -20 -6
-25 -44 -30 -36 -6 -45 -11 -48 -29 -2 -14 -11 -23 -25 -25 -15 -2 -23 -10
-23 -22 0 -15 10 -20 45 -26 35 -5 45 -10 45 -25 0 -16 8 -19 50 -19 47 0 50
-2 50 -25 0 -23 3 -25 50 -25 47 0 50 -2 50 -25 0 -24 2 -25 70 -25 68 0 70
-1 70 -25 0 -23 3 -25 50 -25 43 0 50 -3 50 -20 0 -16 9 -21 50 -26 38 -5 50
-11 50 -24 0 -18 41 -30 108 -30 25 0 32 -4 32 -19 0 -15 10 -20 50 -26 40 -6
50 -11 50 -26 0 -14 7 -19 25 -19 23 0 25 -3 25 -50 0 -47 2 -50 25 -50 23 0
25 -3 25 -50 0 -42 3 -50 19 -50 21 0 31 -40 31 -132 0 -50 3 -58 19 -58 23 0
31 -40 31 -162 0 -81 2 -88 20 -88 19 0 20 -7 20 -120 0 -113 -1 -120 -20
-120 -18 0 -20 -7 -20 -62 0 -96 -9 -138 -30 -138 -13 0 -19 -11 -24 -45 -6
-35 -11 -45 -26 -45 -13 0 -20 -8 -22 -27 -2 -20 -9 -29 -25 -31 -20 -3 -23
-9 -23 -48 0 -40 -2 -44 -25 -44 -23 0 -25 -3 -25 -50 0 -47 -2 -50 -25 -50
-23 0 -25 -4 -25 -44 0 -39 -3 -45 -22 -48 -17 -2 -24 -11 -26 -30 -2 -20 -9
-28 -22 -28 -15 0 -20 -10 -25 -44 -6 -36 -12 -46 -29 -48 -13 -2 -22 -11 -24
-25 -2 -15 -10 -23 -23 -23 -14 0 -19 -7 -19 -25 0 -20 -5 -25 -25 -25 -20 0
-25 -5 -25 -25 l0 -25 145 0 145 0 0 -25 c0 -18 -5 -25 -20 -25 -16 0 -21 -9
-26 -50 -5 -38 -11 -50 -24 -50 -18 0 -30 -41 -30 -107 0 -26 -4 -33 -19 -33
-14 0 -20 -10 -25 -46 -3 -26 -6 -60 -6 -75 0 -22 -5 -29 -19 -29 -16 0 -19
-11 -26 -95 -6 -84 -9 -95 -26 -95 -16 0 -19 -7 -19 -44 0 -72 -10 -106 -31
-106 -17 0 -19 -9 -19 -89 0 -116 -7 -151 -31 -151 -18 0 -19 -9 -19 -125 0
-116 -1 -125 -19 -125 -26 0 -31 -35 -31 -226 0 -154 -1 -164 -19 -164 -28 0
-31 -38 -31 -428 l0 -353 48 3 c40 3 47 6 50 26 3 16 10 22 28 22 19 0 24 5
24 25 0 23 4 25 44 25 42 0 44 -1 50 -38 3 -20 6 -54 6 -74 0 -31 4 -38 19
-38 16 0 19 -11 26 -95 6 -84 9 -95 26 -95 15 0 19 -7 19 -37 0 -73 11 -113
31 -113 14 0 19 -9 21 -47 3 -41 6 -48 25 -51 19 -3 22 -11 25 -50 3 -40 6
-47 26 -50 19 -3 22 -9 22 -48 0 -40 2 -44 25 -44 23 0 25 -3 25 -50 0 -47 2
-50 25 -50 20 0 25 -5 25 -25 0 -18 5 -25 19 -25 15 0 20 -10 25 -44 6 -36 11
-45 29 -48 16 -2 23 -11 25 -30 2 -20 9 -28 22 -28 12 0 20 -8 22 -23 2 -14
11 -23 24 -25 17 -2 23 -12 29 -48 5 -35 10 -44 26 -44 14 0 19 -7 19 -25 0
-20 5 -25 25 -25 20 0 25 -5 25 -25 0 -20 5 -25 25 -25 20 0 25 -5 25 -25 0
-20 5 -25 25 -25 20 0 25 -5 25 -25 0 -20 5 -25 25 -25 18 0 25 -5 25 -19 0
-13 8 -21 23 -23 14 -2 23 -11 25 -25 2 -14 11 -23 25 -25 14 -2 23 -11 25
-24 2 -17 12 -23 48 -29 35 -5 44 -10 44 -26 0 -14 7 -19 25 -19 20 0 25 -5
25 -25 0 -20 5 -25 25 -25 20 0 25 -5 25 -25 0 -23 4 -25 44 -25 39 0 45 -3
48 -22 3 -20 10 -23 51 -26 42 -3 47 -5 47 -28 0 -20 5 -24 30 -24 23 0 30 -5
30 -19 0 -16 9 -21 45 -27 34 -5 45 -11 45 -24 0 -14 11 -20 50 -25 39 -5 50
-11 50 -25 0 -13 11 -19 45 -24 36 -6 45 -11 45 -27 0 -14 7 -19 30 -19 25 0
30 -4 30 -25 0 -22 4 -25 39 -25 67 0 101 -11 101 -31 0 -16 8 -19 50 -19 47
0 50 -2 50 -25 0 -23 3 -25 50 -25 42 0 50 -3 50 -19 0 -20 34 -31 101 -31 32
0 39 -4 39 -19 0 -15 10 -20 50 -26 40 -6 50 -11 50 -26 0 -15 7 -19 38 -19
73 0 112 -11 112 -31 0 -16 8 -19 58 -19 92 0 132 -10 132 -31 0 -17 8 -19 63
-19 97 0 137 -9 137 -31 0 -17 9 -19 83 -19 117 0 157 -8 157 -31 0 -17 8 -19
70 -19 l70 0 0 -69 0 -70 -45 -7 c-39 -5 -45 -10 -45 -30 0 -17 -6 -24 -19
-24 -13 0 -21 -8 -23 -23 -2 -14 -11 -23 -25 -25 -14 -2 -23 -11 -25 -25 -2
-14 -11 -23 -25 -25 -14 -2 -23 -11 -25 -25 -2 -14 -11 -23 -25 -25 -15 -2
-23 -10 -23 -23 0 -14 -7 -19 -25 -19 -20 0 -25 -5 -25 -25 0 -20 -5 -25 -25
-25 -20 0 -25 -5 -25 -25 0 -20 -5 -25 -25 -25 -20 0 -25 -5 -25 -25 0 -20 -5
-25 -25 -25 -20 0 -25 -5 -25 -25 0 -18 -5 -25 -19 -25 -13 0 -21 -8 -23 -22
-2 -15 -11 -24 -25 -26 -18 -3 -23 -12 -29 -48 -5 -38 -10 -44 -30 -44 -19 0
-24 -5 -24 -25 0 -20 -5 -25 -25 -25 -20 0 -25 -5 -25 -25 0 -20 -5 -25 -25
-25 -20 0 -25 -5 -25 -25 0 -18 -5 -25 -19 -25 -13 0 -21 -8 -23 -23 -2 -14
-11 -23 -25 -25 -14 -2 -23 -11 -25 -25 -2 -14 -11 -23 -25 -25 -17 -3 -23
-10 -23 -28 0 -19 -5 -24 -25 -24 -20 0 -25 -5 -25 -25 0 -20 -5 -25 -25 -25
-20 0 -25 -5 -25 -25 0 -18 -5 -25 -19 -25 -13 0 -21 -8 -23 -22 -2 -15 -11
-24 -25 -26 -15 -2 -23 -10 -23 -23 0 -13 -7 -19 -24 -19 -20 0 -25 -6 -30
-44 -6 -36 -11 -45 -29 -48 -14 -2 -23 -11 -25 -26 -2 -14 -10 -22 -23 -22
-13 0 -19 -7 -19 -24 0 -21 -6 -25 -50 -31 -39 -5 -50 -11 -50 -25 0 -15 -13
-19 -100 -25 -89 -6 -100 -9 -100 -26 0 -16 -8 -19 -57 -19 -92 0 -133 -10
-133 -31 0 -16 -10 -19 -72 -21 -67 -3 -73 -5 -76 -25 -3 -22 -8 -23 -98 -23
-94 0 -94 0 -94 -25 l0 -25 -119 0 c-116 0 -120 -1 -123 -22 -3 -22 -8 -23
-100 -26 -97 -3 -98 -3 -98 -27 0 -23 -4 -25 -45 -25 l-44 0 -7 -50 c-5 -39
-11 -50 -25 -50 -13 0 -19 -11 -24 -44 -7 -43 -8 -44 -51 -51 -35 -5 -44 -10
-44 -26 0 -14 -7 -19 -25 -19 -20 0 -25 -5 -25 -25 0 -20 -5 -25 -24 -25 -23
0 -25 -5 -28 -47 -3 -41 -6 -48 -25 -51 -22 -3 -23 -8 -23 -79 l0 -75 31 6
c17 3 38 6 45 6 8 0 14 9 14 19 0 14 8 21 28 23 19 2 28 9 30 25 3 18 12 23
48 29 34 5 44 10 44 25 0 14 7 19 25 19 20 0 25 5 25 25 0 23 3 25 50 25 47 0
50 2 50 25 0 23 4 25 45 25 41 0 45 2 45 25 0 21 5 25 30 25 23 0 30 5 30 19
0 16 9 21 45 27 34 5 45 11 45 24 0 14 11 20 50 25 39 5 50 11 50 25 0 18 41
30 108 30 25 0 32 4 32 19 0 16 10 21 55 26 43 6 55 11 55 25 0 14 12 18 68
23 119 12 122 11 122 -23 0 -25 -4 -30 -25 -30 -20 0 -25 -5 -25 -25 0 -20 -5
-25 -25 -25 -20 0 -25 -5 -25 -25 0 -18 -5 -25 -19 -25 -16 0 -21 -9 -27 -45
-5 -34 -11 -45 -24 -45 -18 0 -30 -41 -30 -107 0 -26 -4 -33 -20 -33 -16 0
-20 -7 -20 -31 0 -26 3 -30 23 -27 14 2 23 11 25 26 2 14 10 22 23 22 14 0 19
7 19 25 0 20 5 25 25 25 20 0 25 5 25 25 0 20 5 25 25 25 20 0 25 5 25 25 0
23 4 25 44 25 39 0 45 3 48 22 2 17 11 24 31 26 19 2 27 9 27 22 0 16 10 21
50 26 38 5 50 11 50 24 0 25 38 30 214 30 186 0 226 -6 226 -31 0 -16 8 -19
45 -19 41 0 45 2 45 25 0 18 -5 25 -20 25 -16 0 -21 9 -26 50 -5 38 -11 50
-24 50 -23 0 -30 37 -30 165 0 132 6 163 34 167 13 2 22 11 24 26 2 14 10 22
23 22 14 0 19 7 19 25 0 20 5 25 25 25 20 0 25 5 25 25 0 20 5 25 25 25 20 0
25 5 25 25 0 20 5 25 25 25 20 0 25 5 25 25 0 20 5 25 25 25 20 0 25 5 25 25
0 18 5 25 19 25 13 0 21 8 23 23 2 14 11 23 25 25 14 2 23 11 25 25 2 14 11
23 26 25 16 3 22 10 22 28 0 19 5 24 25 24 20 0 25 5 25 25 0 20 5 25 25 25
23 0 25 4 25 45 0 41 2 45 25 45 20 0 25 5 25 25 0 20 5 25 25 25 20 0 25 5
25 25 0 20 5 25 25 25 18 0 25 5 25 19 0 13 8 21 23 23 14 2 23 11 25 25 2 14
11 23 25 25 14 2 23 11 25 26 2 14 10 22 23 22 14 0 19 7 19 25 0 20 5 25 25
25 20 0 25 5 25 25 0 20 5 25 25 25 20 0 25 5 25 25 0 20 5 25 25 25 20 0 25
5 25 25 0 20 5 25 25 25 20 0 25 5 25 25 0 20 5 25 25 25 20 0 25 5 25 25 0
20 5 25 25 25 18 0 25 5 25 19 0 13 8 21 23 23 14 2 23 11 25 25 3 18 12 23
48 29 33 5 44 11 44 24 0 14 11 20 50 25 l50 7 0 44 0 44 536 0 c517 0 536 1
541 19 5 20 41 31 104 31 35 0 39 -3 39 -25 0 -20 5 -25 25 -25 l25 0 0 -120
0 -120 25 0 c23 0 25 -3 25 -50 0 -47 2 -50 25 -50 20 0 25 -5 25 -25 0 -20 5
-25 25 -25 20 0 25 -5 25 -25 0 -23 4 -25 44 -25 39 0 45 -3 48 -23 2 -14 11
-23 26 -25 14 -2 22 -10 22 -22 0 -12 -8 -20 -22 -22 -17 -2 -24 -11 -26 -31
-2 -18 -9 -27 -22 -27 -13 0 -19 -11 -24 -45 -6 -35 -11 -45 -26 -45 -14 0
-20 -11 -25 -50 -5 -40 -11 -50 -25 -50 -15 0 -19 -9 -22 -47 -3 -41 -6 -48
-25 -51 -19 -3 -22 -11 -25 -50 -3 -40 -6 -47 -25 -50 -19 -3 -22 -11 -25 -50
-3 -40 -6 -47 -25 -50 -20 -3 -23 -9 -23 -48 0 -36 -3 -44 -19 -44 -19 0 -31
-39 -31 -107 0 -25 -5 -32 -22 -35 -20 -3 -23 -10 -26 -50 -3 -39 -7 -48 -22
-48 -15 0 -20 -10 -25 -55 -6 -45 -11 -55 -26 -55 -15 0 -19 -7 -19 -32 0 -68
-12 -108 -31 -108 -14 0 -19 -9 -21 -47 -3 -41 -6 -48 -25 -51 -21 -3 -23 -8
-23 -73 0 -67 -1 -69 -25 -69 -23 0 -25 -3 -25 -50 0 -47 -2 -50 -25 -50 -20
0 -25 -5 -25 -25 0 -24 -2 -25 -75 -25 -68 0 -75 -2 -75 -20 0 -17 -7 -20 -45
-20 -38 0 -45 3 -45 20 0 19 -7 20 -219 20 l-220 0 -3 -22 c-3 -21 -9 -23 -75
-26 -70 -3 -73 -4 -73 -27 0 -23 -4 -25 -44 -25 -39 0 -45 -3 -48 -22 -2 -17
-11 -24 -30 -26 -20 -2 -28 -9 -28 -22 0 -12 -8 -20 -22 -22 -15 -2 -24 -11
-26 -25 -2 -14 -11 -23 -25 -25 -14 -2 -23 -11 -25 -25 -2 -15 -10 -23 -23
-23 -14 0 -19 -7 -19 -25 0 -20 -5 -25 -25 -25 -20 0 -25 -5 -25 -25 0 -27 8
-29 59 -19 21 5 31 12 31 25 0 14 7 19 30 19 25 0 30 4 30 25 0 23 3 25 50 25
42 0 50 3 50 19 0 20 34 31 101 31 35 0 39 -3 39 -25 0 -20 -5 -25 -25 -25
-20 0 -25 -5 -25 -25 0 -20 -5 -25 -25 -25 -18 0 -25 -5 -25 -19 0 -16 -9 -21
-44 -26 -36 -6 -46 -12 -48 -29 -2 -15 -11 -22 -30 -24 -22 -3 -28 -9 -28 -28
0 -19 -5 -24 -25 -24 -18 0 -25 -5 -25 -20 0 -13 -7 -20 -20 -20 -15 0 -20 -7
-20 -25 0 -20 -5 -25 -25 -25 -20 0 -25 -5 -25 -25 0 -20 -5 -25 -25 -25 -20
0 -25 -5 -25 -24 0 -18 -6 -25 -22 -28 -20 -3 -23 -10 -26 -50 -3 -39 -7 -48
-22 -48 -15 0 -20 -10 -26 -45 -3 -25 -4 -48 -1 -51 3 -3 26 -2 51 1 36 6 46
11 46 26 0 14 7 19 25 19 20 0 25 5 25 25 0 23 4 25 45 25 41 0 45 2 45 25 0
21 5 25 30 25 23 0 30 5 30 19 0 16 9 21 44 26 36 6 46 12 48 29 3 18 11 21
51 24 42 3 47 5 47 28 0 22 4 24 45 24 38 0 45 3 45 19 0 15 10 20 50 26 39 5
50 11 50 25 0 14 11 20 50 25 39 5 50 11 50 25 0 14 11 20 50 25 40 6 50 11
50 26 0 16 7 19 50 19 47 0 50 2 50 25 0 23 3 25 50 25 47 0 50 2 50 25 0 24
2 25 70 25 62 0 70 2 70 19 0 20 39 31 113 31 29 0 37 4 37 19 0 15 11 19 77
25 42 3 152 6 245 6 l168 0 0 -100 c0 -91 2 -100 19 -100 19 0 31 -39 31 -107
0 -26 4 -33 19 -33 15 0 20 -10 26 -50 6 -44 10 -50 31 -50 19 0 24 5 24 25 0
18 5 25 20 25 18 0 20 7 20 64 0 91 9 126 31 126 18 0 19 10 19 145 l0 145
-25 0 c-20 0 -25 5 -25 25 0 20 -5 25 -25 25 -20 0 -25 5 -25 25 0 24 -2 25
-70 25 -68 0 -70 1 -70 25 l0 25 -125 0 -125 0 0 38 c0 73 11 112 31 112 16 0
19 8 19 50 0 47 2 50 25 50 24 0 25 2 25 70 0 68 1 70 25 70 23 0 25 3 25 50
0 42 3 50 19 50 19 0 31 39 31 108 0 25 4 32 19 32 15 0 20 10 26 50 5 39 11
50 25 50 14 0 20 11 25 50 5 40 11 50 25 50 15 0 19 9 22 48 3 40 6 47 25 50
19 3 22 11 25 50 3 40 6 47 25 50 19 3 22 11 25 50 3 40 6 47 26 50 19 3 22 9
22 48 0 40 2 44 25 44 23 0 25 3 25 50 0 47 2 50 25 50 23 0 25 4 25 44 0 39
3 45 23 48 19 3 22 10 25 50 l3 48 45 0 c37 0 44 -3 44 -20 0 -15 7 -20 25
-20 18 0 25 5 25 20 0 15 7 20 24 20 19 0 25 6 28 28 2 19 9 28 26 30 19 3 22
9 22 48 0 40 2 44 25 44 25 0 25 0 25 94 0 90 1 95 23 98 21 3 22 8 25 101 l3
97 -26 0 c-25 0 -25 0 -25 94 l0 93 38 7 c20 3 52 6 70 6 25 0 32 4 32 20 0
16 7 20 38 20 73 0 112 11 112 31 0 16 8 19 44 19 72 0 106 10 106 31 0 17 8
19 75 19 73 0 75 1 75 25 0 25 0 25 95 25 95 0 95 0 95 25 0 23 3 25 50 25 47
0 50 2 50 25 0 20 -5 25 -25 25 -20 0 -25 5 -25 25 0 20 -5 25 -25 25 -20 0
-25 5 -25 25 0 20 -5 25 -25 25 -18 0 -25 5 -25 20 0 15 7 20 25 20 20 0 25 5
25 25 0 23 3 24 73 27 64 3 72 5 75 24 3 20 11 21 139 27 74 3 193 3 264 0
120 -6 128 -7 131 -27 2 -17 11 -22 51 -24 38 -3 47 -7 47 -22 0 -14 10 -20
50 -25 39 -5 50 -11 50 -25 0 -14 11 -20 50 -25 39 -5 50 -11 50 -25 0 -13 11
-19 45 -24 36 -6 45 -11 45 -27 0 -14 7 -19 30 -19 25 0 30 -4 30 -25 0 -23 4
-25 45 -25 41 0 45 -2 45 -25 0 -23 3 -25 50 -25 47 0 50 -2 50 -25 0 -23 4
-25 44 -25 39 0 45 -3 48 -23 2 -16 11 -23 31 -25 19 -2 27 -9 27 -22 0 -15
10 -20 45 -26 34 -5 45 -11 45 -24 0 -14 11 -20 50 -25 40 -6 50 -11 50 -26 0
-14 7 -19 25 -19 20 0 25 -5 25 -24 0 -23 5 -25 48 -28 40 -3 47 -6 50 -25 3
-20 9 -23 48 -23 40 0 44 -2 44 -25 0 -21 5 -25 30 -25 23 0 30 -5 30 -19 0
-16 9 -21 45 -27 35 -5 45 -11 45 -25 0 -14 10 -20 50 -25 39 -5 50 -11 50
-25 0 -13 11 -19 45 -25 34 -5 45 -11 45 -24 0 -13 9 -20 28 -22 19 -2 28 -9
30 -26 3 -19 9 -22 48 -22 40 0 44 -2 44 -25 0 -20 5 -25 25 -25 23 0 25 3 25
50 0 47 -2 50 -25 50 -24 0 -25 2 -25 70 0 68 -1 70 -25 70 -23 0 -25 3 -25
50 0 43 -3 50 -20 50 -15 0 -20 7 -20 25 0 24 2 25 64 25 91 0 126 -9 126 -31
0 -17 9 -19 95 -19 95 0 95 0 95 -25 l0 -25 119 0 c116 0 120 -1 123 -23 3
-21 7 -22 131 -25 115 -2 127 -4 127 -21 0 -15 11 -19 68 -24 86 -9 915 -9
965 -1 27 5 37 11 37 25 0 17 9 19 96 19 86 0 96 2 101 19 5 20 41 31 104 31
31 0 39 4 39 19 0 20 34 31 101 31 32 0 39 4 39 19 0 13 -8 21 -22 23 -15 2
-24 11 -26 25 -3 18 -12 23 -48 29 -34 5 -44 10 -44 25 0 14 -7 19 -25 19 -20
0 -25 5 -25 25 0 20 -5 25 -25 25 -20 0 -25 5 -25 25 0 23 -3 25 -50 25 -47 0
-50 2 -50 25 0 20 -5 25 -25 25 -20 0 -25 5 -25 25 0 23 -4 25 -45 25 -41 0
-45 2 -45 25 0 21 -5 25 -30 25 -23 0 -30 5 -30 19 0 16 -9 21 -45 27 -39 5
-45 10 -45 30 0 19 -5 24 -25 24 -18 0 -25 5 -25 19 0 15 -10 20 -45 25 -35 6
-45 11 -45 26 0 13 -8 20 -27 22 -20 2 -29 9 -31 24 -2 17 -12 23 -48 29 -35
5 -44 10 -44 26 0 14 -7 19 -25 19 -20 0 -25 5 -25 25 0 23 -3 25 -50 25 -47
0 -50 2 -50 25 0 20 -5 25 -25 25 -20 0 -25 5 -25 25 0 23 -4 25 -44 25 -39 0
-45 3 -48 22 -2 17 -11 24 -30 26 -20 2 -28 9 -28 22 0 15 -10 20 -44 25 -36
6 -46 12 -48 29 -2 13 -11 22 -25 24 -14 2 -23 10 -23 22 0 13 -11 19 -45 24
-36 6 -45 11 -45 27 0 14 -7 19 -30 19 -25 0 -30 4 -30 25 0 20 -5 25 -25 25
-20 0 -25 5 -25 25 0 23 -4 25 -45 25 -41 0 -45 2 -45 25 0 21 -5 25 -30 25
-23 0 -30 5 -30 19 0 16 -9 21 -45 27 -39 5 -45 10 -45 30 0 19 -5 24 -25 24
-18 0 -25 5 -25 19 0 15 -10 20 -45 25 -35 6 -45 11 -45 26 0 13 -8 20 -27 22
-20 2 -29 9 -31 24 -2 17 -12 23 -48 29 -35 5 -44 10 -44 26 0 14 -7 19 -25
19 -20 0 -25 5 -25 25 0 23 -4 25 -44 25 -39 0 -45 3 -48 22 -2 17 -11 24 -30
26 -22 3 -28 9 -28 28 0 19 -5 24 -25 24 -18 0 -25 5 -25 19 0 15 -10 20 -45
25 -35 6 -45 11 -45 26 0 13 -8 20 -27 22 -20 2 -29 9 -31 24 -2 17 -12 23
-48 29 -35 5 -44 10 -44 26 0 14 -7 19 -25 19 -20 0 -25 5 -25 24 0 23 -5 25
-47 28 -41 3 -48 6 -51 25 -3 17 -10 23 -28 23 -19 0 -24 5 -24 25 0 23 -4 25
-45 25 -41 0 -45 2 -45 25 0 20 -5 25 -25 25 -18 0 -25 5 -25 19 0 15 -10 20
-50 26 -44 6 -50 10 -50 31 0 19 -5 24 -25 24 -18 0 -25 5 -25 19 0 15 -10 20
-45 25 -35 6 -45 11 -45 26 0 13 -8 20 -27 22 -20 2 -29 9 -31 24 -2 17 -12
23 -48 29 -35 5 -44 10 -44 26 0 14 -7 19 -25 19 -20 0 -25 5 -25 25 0 23 -4
25 -44 25 -39 0 -45 3 -48 23 -2 16 -11 23 -30 25 -22 3 -28 9 -28 28 0 19 -5
24 -25 24 -18 0 -25 5 -25 19 0 15 -10 20 -45 25 -35 6 -45 11 -45 26 0 13 -8
20 -27 22 -20 2 -29 9 -31 24 -2 17 -12 23 -48 29 -35 5 -44 10 -44 26 0 14
-7 19 -25 19 -20 0 -25 5 -25 24 0 23 -5 25 -47 28 -41 3 -48 6 -51 26 -3 16
-10 22 -28 22 -19 0 -24 5 -24 25 0 23 -4 25 -45 25 -41 0 -45 2 -45 25 0 20
-5 25 -25 25 -18 0 -25 5 -25 19 0 15 -10 20 -50 26 -44 6 -50 10 -50 31 0 19
-5 24 -25 24 -18 0 -25 5 -25 19 0 15 -10 20 -45 25 -35 6 -45 11 -45 26 0 13
-8 20 -27 22 -20 2 -29 9 -31 26 -3 16 -10 22 -28 22 -19 0 -24 5 -24 25 0 23
-4 25 -45 25 -41 0 -45 2 -45 25 0 20 -5 25 -25 25 -18 0 -25 5 -25 19 0 15
-10 20 -50 26 -44 6 -50 10 -50 31 0 19 -5 24 -25 24 -18 0 -25 5 -25 19 0 15
-10 20 -45 25 -35 6 -45 11 -45 26 0 13 -8 20 -27 22 -20 2 -29 9 -31 24 -2
17 -12 23 -48 29 -35 5 -44 10 -44 26 0 14 -7 19 -25 19 -20 0 -25 5 -25 25 0
23 -4 25 -45 25 -41 0 -45 2 -45 25 0 21 -5 25 -30 25 -25 0 -30 4 -30 25 0
23 -4 25 -45 25 -41 0 -45 2 -45 25 0 20 -5 25 -25 25 -18 0 -25 5 -25 19 0
14 -8 21 -27 23 -20 2 -29 9 -31 25 -3 18 -12 23 -48 29 -34 5 -44 10 -44 25
0 14 -7 19 -25 19 -20 0 -25 5 -25 25 0 23 -4 25 -45 25 -41 0 -45 2 -45 25 0
21 -5 25 -30 25 -25 0 -30 4 -30 25 0 23 -4 25 -45 25 -41 0 -45 2 -45 25 0
20 -5 25 -25 25 -18 0 -25 5 -25 19 0 15 -10 20 -50 26 -44 6 -50 10 -50 31 0
19 -5 24 -25 24 -18 0 -25 5 -25 19 0 15 -10 20 -45 25 -35 6 -45 11 -45 26 0
13 -8 20 -27 22 -20 2 -29 9 -31 24 -2 17 -12 23 -48 29 -35 5 -44 10 -44 26
0 14 -7 19 -25 19 -20 0 -25 5 -25 25 0 23 -4 25 -45 25 -41 0 -45 2 -45 25 0
21 -5 25 -30 25 -25 0 -30 4 -30 25 0 23 -4 25 -45 25 -41 0 -45 2 -45 25 0
20 -5 25 -25 25 -18 0 -25 5 -25 19 0 14 -8 21 -27 23 -20 2 -29 9 -31 25 -3
18 -12 23 -48 29 -34 5 -44 10 -44 25 0 14 -7 19 -25 19 -20 0 -25 5 -25 25 0
23 -4 25 -45 25 -41 0 -45 2 -45 25 0 21 -5 25 -30 25 -25 0 -30 4 -30 25 0
23 -4 25 -45 25 l-45 0 0 50 c0 47 2 50 25 50 20 0 25 5 25 25 0 23 4 25 44
25 39 0 45 3 48 23 2 14 11 23 26 25 14 2 22 10 22 22 0 13 8 20 28 22 19 2
28 9 30 26 3 19 9 22 48 22 40 0 44 2 44 25 0 20 5 25 25 25 20 0 25 5 25 25
0 23 4 25 44 25 39 0 45 3 48 23 2 16 11 23 31 25 21 3 27 9 27 28 0 22 4 24
45 24 41 0 45 2 45 25 0 20 5 25 25 25 18 0 25 5 25 19 0 15 10 20 50 26 44 6
50 10 50 31 0 19 5 24 25 24 18 0 25 5 25 20 0 15 7 20 25 20 20 0 25 5 25 25
0 23 4 25 45 25 41 0 45 2 45 25 0 21 5 25 30 25 25 0 30 4 30 25 0 23 4 25
45 25 41 0 45 2 45 25 0 20 5 25 25 25 18 0 25 5 25 19 0 15 10 20 44 25 36 6
45 11 48 29 2 16 11 23 31 25 19 2 27 9 27 22 0 15 10 20 45 26 35 5 45 10 45
25 0 14 7 19 25 19 20 0 25 5 25 24 0 21 6 25 50 31 40 6 50 11 50 26 0 14 7
19 25 19 20 0 25 5 25 25 0 23 4 25 45 25 41 0 45 2 45 25 0 20 5 25 24 25 18
0 25 6 28 23 3 19 10 22 51 25 42 3 47 5 47 28 0 19 5 24 24 24 18 0 25 6 28
23 2 14 11 23 26 25 14 2 22 10 22 22 0 14 11 20 50 25 40 6 50 11 50 26 0 14
7 19 25 19 20 0 25 5 25 25 0 23 4 25 45 25 41 0 45 2 45 25 0 20 5 25 24 25
18 0 25 6 28 23 3 19 10 22 51 25 42 3 47 5 47 28 0 19 5 24 25 24 20 0 25 5
25 25 0 23 4 25 44 25 39 0 45 3 48 23 2 16 11 23 31 25 19 2 27 9 27 22 0 12
8 20 23 22 14 2 23 11 25 26 3 19 9 22 48 22 40 0 44 2 44 25 0 20 5 25 25 25
20 0 25 5 25 25 0 23 3 25 50 25 47 0 50 2 50 25 0 20 5 25 25 25 20 0 25 5
25 25 0 23 4 25 44 25 39 0 45 3 48 23 2 16 11 23 31 25 19 2 27 9 27 22 0 15
10 20 44 25 36 6 46 12 48 29 2 13 11 22 26 24 14 2 22 10 22 23 0 14 7 19 25
19 20 0 25 5 25 24 0 23 5 25 48 28 40 3 47 6 50 26 3 16 10 22 28 22 19 0 24
5 24 25 0 23 4 25 45 25 41 0 45 2 45 25 0 20 5 25 25 25 18 0 25 5 25 19 0
15 10 20 50 26 44 6 50 10 50 31 0 19 5 24 25 24 18 0 25 5 25 19 0 15 10 20
45 25 35 6 45 11 45 26 0 13 8 20 28 22 19 2 28 9 30 24 2 17 12 23 48 29 35
5 44 10 44 26 0 14 7 19 25 19 20 0 25 5 25 25 0 23 4 25 44 25 39 0 45 3 48
23 2 16 11 23 31 25 21 3 27 9 27 28 0 19 5 24 25 24 18 0 25 5 25 19 0 16 9
21 45 27 40 5 45 9 45 31 0 24 -2 25 -37 19 -21 -3 -64 -6 -95 -6 -51 0 -58
-2 -58 -20 0 -18 -7 -20 -54 -20 -97 0 -146 -11 -146 -31 0 -17 -8 -19 -64
-19 -91 0 -126 -9 -126 -31 0 -16 -11 -19 -97 -21 -93 -3 -98 -4 -101 -25 -3
-22 -8 -23 -97 -23 -89 0 -94 -1 -97 -22 -3 -22 -8 -23 -100 -26 -87 -2 -98
-5 -98 -21 0 -23 -35 -31 -131 -31 -61 0 -69 -2 -69 -19 0 -21 -40 -31 -132
-31 -51 0 -58 -2 -58 -20 0 -17 -7 -20 -43 -20 -24 0 -78 -3 -120 -6 -64 -6
-77 -10 -77 -24 0 -15 -14 -19 -95 -25 -84 -6 -95 -9 -95 -26 0 -17 -8 -19
-62 -19 -98 0 -138 -9 -138 -31 0 -17 -8 -19 -62 -19 -98 0 -138 -9 -138 -31
0 -17 -9 -19 -96 -19 -86 0 -96 -2 -101 -19 -6 -23 -41 -31 -129 -31 -56 0
-64 -2 -64 -19 0 -24 -35 -31 -151 -31 -88 0 -89 0 -89 25 0 23 3 25 50 25 42
0 50 3 50 19 0 20 34 31 101 31 35 0 39 3 39 25 0 23 3 25 50 25 42 0 50 3 50
19 0 19 39 31 108 31 25 0 32 4 32 19 0 15 10 20 50 26 39 5 50 11 50 25 0 15
11 20 55 25 45 6 55 11 55 26 0 15 7 19 34 19 60 0 96 11 96 30 0 14 12 19 55
25 45 5 55 10 55 25 0 15 9 19 48 22 40 3 47 6 50 26 3 20 8 22 73 22 67 0 69
1 69 25 0 23 3 25 50 25 42 0 50 3 50 19 0 20 34 31 101 31 35 0 39 3 39 25 0
23 3 25 50 25 43 0 50 3 50 19 0 15 10 20 50 26 39 5 50 11 50 25 0 18 41 30
108 30 25 0 32 4 32 19 0 15 10 20 50 26 40 6 50 11 50 26 0 16 7 19 50 19 47
0 50 2 50 25 0 23 3 25 50 25 47 0 50 2 50 25 0 24 2 25 70 25 68 0 70 1 70
25 0 23 3 25 49 25 44 0 50 3 53 23 3 19 10 22 51 25 38 2 47 7 47 21 0 19 40
31 108 31 25 0 32 4 32 19 0 15 10 20 50 26 40 6 50 11 50 26 0 16 7 19 50 19
47 0 50 2 50 25 0 22 4 25 39 25 67 0 101 11 101 31 0 16 8 19 50 19 47 0 50
2 50 25 0 23 3 25 49 25 44 0 50 3 53 23 3 19 10 22 51 25 38 2 47 7 47 21 0
19 40 31 107 31 25 0 32 5 35 23 3 19 10 22 56 25 43 3 52 6 52 22 0 14 10 20
50 25 40 6 50 11 50 26 0 15 7 19 33 19 67 0 107 12 107 31 0 14 9 19 48 21
40 3 47 6 50 25 3 19 11 22 50 25 40 3 47 6 50 26 3 20 8 22 73 22 67 0 69 1
69 25 0 23 3 25 50 25 47 0 50 2 50 25 0 23 3 25 50 25 42 0 50 3 50 19 0 20
34 31 101 31 32 0 39 4 39 19 0 15 10 20 50 26 39 5 50 11 50 25 0 14 11 20
50 25 40 6 50 11 50 26 0 15 7 19 33 19 68 0 107 12 107 31 0 16 8 19 50 19
47 0 50 2 50 25 0 22 4 25 39 25 67 0 101 11 101 31 0 16 8 19 49 19 44 0 50
3 53 23 3 19 10 22 51 25 38 2 47 7 47 21 0 19 40 31 107 31 25 0 32 5 35 23
3 19 10 22 51 25 38 3 47 7 47 22 0 14 10 20 50 25 39 5 50 11 50 25 0 14 11
19 55 25 45 5 55 10 55 26 0 15 7 19 33 19 67 0 107 12 107 31 0 14 9 19 48
21 40 3 47 6 50 26 3 19 9 22 53 22 41 0 49 3 49 19 0 20 34 31 101 31 35 0
39 3 39 25 0 23 3 25 50 25 43 0 50 3 50 19 0 11 -4 23 -10 26 -5 3 -82 3
-170 -1 -147 -6 -160 -9 -160 -25 0 -18 -10 -19 -123 -19 -68 0 -158 -3 -200
-6 -66 -6 -77 -10 -77 -25 0 -18 -11 -19 -157 -19 -193 0 -233 -6 -233 -31 0
-18 -11 -19 -195 -19 -184 0 -195 -1 -195 -19 0 -27 -34 -31 -246 -31 -182 0
-183 0 -186 -22 -3 -23 -4 -23 -195 -26 -180 -2 -193 -4 -193 -21 0 -25 -41
-31 -232 -31 -147 0 -158 -1 -158 -19 0 -15 -11 -19 -77 -25 -42 -3 -129 -6
-195 -6 -109 0 -118 -1 -118 -19 0 -17 -13 -19 -200 -26 -187 -7 -200 -9 -200
-26 0 -18 -9 -19 -118 -19 -66 0 -153 -3 -195 -6 -66 -6 -77 -10 -77 -25 0
-18 -11 -19 -157 -19 -193 0 -233 -6 -233 -31 0 -18 -11 -19 -195 -19 -184 0
-195 -1 -195 -19 0 -26 -35 -31 -226 -31 l-164 0 0 -25 c0 -18 -5 -25 -20 -25
-17 0 -20 7 -20 50 0 47 2 50 25 50 18 0 25 5 25 19 0 16 9 21 45 27 39 5 45
10 45 30 0 19 5 24 25 24 18 0 25 5 25 19 0 16 9 21 44 26 36 6 46 12 48 29 2
13 11 22 26 24 14 2 22 10 22 22 0 13 8 20 28 22 19 2 28 9 30 26 3 19 9 22
48 22 40 0 44 2 44 25 0 20 5 25 25 25 20 0 25 5 25 25 0 23 4 25 45 25 41 0
45 2 45 25 0 21 5 25 30 25 25 0 30 4 30 25 0 20 5 25 25 25 18 0 25 5 25 19
0 16 9 21 44 26 36 6 46 12 48 29 2 13 11 22 26 24 14 2 22 10 22 23 0 14 7
19 25 19 20 0 25 5 25 24 0 23 5 25 48 28 40 3 47 6 50 26 3 16 10 22 28 22
19 0 24 5 24 25 0 23 4 25 45 25 41 0 45 2 45 25 0 20 5 25 25 25 20 0 25 5
25 25 0 20 5 25 25 25 18 0 25 5 25 19 0 15 10 20 50 26 44 6 50 10 50 31 0
19 5 24 25 24 18 0 25 5 25 19 0 13 8 21 23 23 14 2 23 11 25 24 2 17 12 23
48 29 35 5 44 10 44 26 0 14 7 19 25 19 20 0 25 5 25 25 0 21 5 25 30 25 23 0
30 5 30 19 0 16 9 21 45 27 39 5 45 10 45 30 0 19 5 24 25 24 18 0 25 5 25 19
0 16 9 21 44 26 36 6 46 12 48 29 2 13 11 22 26 24 14 2 22 10 22 22 0 13 8
20 28 22 19 2 28 9 30 24 2 17 12 23 48 29 35 5 44 10 44 26 0 14 7 19 25 19
20 0 25 5 25 24 0 20 6 25 45 30 36 6 45 11 45 27 0 14 7 19 30 19 25 0 30 4
30 25 0 20 5 25 25 25 18 0 25 5 25 19 0 16 9 21 45 27 39 5 45 10 45 30 0 19
5 24 25 24 18 0 25 5 25 19 0 15 10 20 44 25 36 6 45 11 48 29 2 16 11 23 31
25 19 2 27 9 27 22 0 12 8 20 23 22 14 2 23 11 25 26 3 18 -1 22 -22 22 -21 0
-26 -5 -26 -25 0 -24 -2 -25 -75 -25 -73 0 -75 -1 -75 -25 0 -23 -3 -25 -50
-25 -42 0 -50 -3 -50 -19 0 -19 -39 -31 -107 -31 -26 0 -33 -4 -33 -19 0 -15
-10 -20 -50 -26 -40 -6 -50 -11 -50 -26 0 -15 -7 -19 -37 -19 -74 0 -113 -11
-113 -31 0 -15 -8 -19 -39 -19 -67 0 -101 -11 -101 -31 0 -16 -8 -19 -50 -19
-47 0 -50 -2 -50 -25 0 -24 -2 -25 -69 -25 -65 0 -70 -2 -73 -22 -3 -20 -10
-23 -55 -26 -44 -2 -53 -6 -53 -21 0 -20 -35 -31 -101 -31 -32 0 -39 -4 -39
-19 0 -15 -10 -20 -50 -26 -40 -6 -50 -11 -50 -26 0 -15 -7 -19 -32 -19 -68 0
-108 -12 -108 -31 0 -15 -10 -19 -52 -21 -46 -3 -53 -6 -56 -25 -3 -20 -10
-22 -70 -25 -61 -3 -67 -5 -70 -25 -3 -19 -10 -23 -41 -23 -67 0 -101 -11
-101 -31 0 -16 -8 -19 -55 -19 -47 0 -55 -3 -55 -19 0 -20 -34 -31 -101 -31
-31 0 -39 -4 -39 -19 0 -20 -34 -31 -101 -31 -31 0 -38 -4 -41 -22 -3 -20 -10
-23 -50 -26 -39 -2 -48 -7 -48 -21 0 -20 -40 -31 -112 -31 -31 0 -38 -4 -38
-19 0 -15 -10 -20 -50 -26 -40 -6 -50 -11 -50 -26 0 -15 -7 -19 -39 -19 -67 0
-101 -11 -101 -31 0 -16 -8 -19 -50 -19 -47 0 -50 2 -50 25 0 18 5 25 20 25
16 0 21 9 26 50 5 39 10 50 25 50 14 0 20 11 25 50 5 39 11 50 24 50 13 0 19
11 24 45 6 35 11 45 26 45 15 0 19 9 22 48 3 40 6 47 25 50 19 3 22 11 25 50
3 40 6 47 25 50 19 3 22 11 25 50 3 40 6 47 26 50 19 3 22 9 22 47 0 38 3 44
23 47 19 3 22 10 25 51 3 45 2 47 -22 47 -21 0 -26 -5 -26 -25 0 -23 -3 -25
-50 -25 -47 0 -50 -2 -50 -25 0 -20 -5 -25 -25 -25 -20 0 -25 -5 -25 -25 0
-23 -4 -25 -45 -25 -41 0 -45 -2 -45 -25 0 -20 -5 -25 -25 -25 -18 0 -25 -5
-25 -20 0 -15 -7 -20 -25 -20 -20 0 -25 -5 -25 -24 0 -21 -6 -25 -50 -31 -39
-5 -50 -11 -50 -25 0 -12 -8 -20 -22 -22 -15 -2 -24 -11 -26 -24 -2 -17 -12
-23 -48 -29 -35 -5 -44 -10 -44 -26 0 -14 -7 -19 -25 -19 -20 0 -25 -5 -25
-25 0 -21 -5 -25 -30 -25 -23 0 -30 -5 -30 -19 0 -16 -9 -21 -45 -27 -39 -5
-45 -10 -45 -30 0 -19 -5 -24 -25 -24 -18 0 -25 -5 -25 -19 0 -16 -9 -21 -44
-26 -36 -6 -46 -12 -48 -29 -2 -15 -11 -22 -30 -24 -20 -2 -28 -9 -28 -22 0
-12 -8 -20 -22 -22 -15 -2 -24 -11 -26 -24 -2 -17 -12 -23 -48 -29 -35 -5 -44
-10 -44 -26 0 -14 -7 -19 -25 -19 -20 0 -25 -5 -25 -25 0 -23 -4 -25 -44 -25
-39 0 -45 -3 -48 -22 -2 -17 -11 -24 -30 -26 -22 -3 -28 -9 -28 -28 0 -19 -5
-24 -25 -24 -18 0 -25 -5 -25 -19 0 -16 -9 -21 -44 -26 -36 -6 -46 -12 -48
-29 -2 -13 -11 -22 -25 -24 -15 -2 -23 -10 -23 -22 0 -14 -11 -20 -50 -25 -39
-5 -50 -11 -50 -25 0 -12 -8 -20 -22 -22 -15 -2 -24 -11 -26 -25 -3 -17 -10
-23 -28 -23 -19 0 -24 -5 -24 -25 0 -23 -4 -25 -45 -25 -41 0 -45 -2 -45 -25
0 -20 -5 -25 -24 -25 -18 0 -25 -6 -28 -22 -3 -20 -10 -23 -50 -26 -43 -3 -48
-5 -48 -28 0 -19 -5 -24 -25 -24 -20 0 -25 -5 -25 -25 0 -23 -3 -25 -51 -25
-49 0 -50 1 -47 28 2 19 9 28 26 30 18 3 22 10 22 41 0 67 11 101 31 101 16 0
19 8 19 44 0 39 3 45 23 48 19 3 22 10 25 50 3 39 6 47 25 50 19 3 22 10 25
51 3 38 7 47 22 47 14 0 20 10 25 50 5 39 11 50 25 50 14 0 20 11 25 50 5 40
11 50 25 50 15 0 19 9 22 48 3 40 6 47 26 50 18 3 22 10 22 41 0 66 11 101 31
101 14 0 19 9 21 48 3 40 6 47 26 50 19 3 22 9 22 53 0 46 2 49 25 49 23 0 25
3 25 50 0 43 3 50 20 50 16 0 21 9 26 50 5 38 11 50 24 50 19 0 30 36 30 96 0
27 4 34 19 34 15 0 20 10 26 50 5 39 11 50 25 50 13 0 19 11 24 50 5 39 11 50
25 50 15 0 20 11 25 50 5 41 10 50 26 50 17 0 20 7 20 50 0 47 2 50 25 50 23
0 25 3 25 50 0 47 2 50 25 50 23 0 25 3 25 50 0 42 3 50 19 50 20 0 31 34 31
101 0 35 3 39 25 39 23 0 25 3 25 50 0 43 3 50 19 50 16 0 21 9 27 45 5 34 11
45 24 45 13 0 19 11 24 50 5 41 10 50 26 50 17 0 20 7 20 50 0 47 2 50 25 50
23 0 25 3 25 50 0 47 2 50 25 50 23 0 25 3 25 50 0 47 2 50 25 50 24 0 25 2
25 70 0 68 1 70 25 70 23 0 25 3 25 50 0 47 2 50 25 50 23 0 25 3 25 50 0 43
3 50 20 50 16 0 21 9 26 50 5 39 11 50 24 50 13 0 19 11 24 45 6 36 11 45 27
45 16 0 19 7 19 50 0 47 2 50 25 50 23 0 25 3 25 50 0 47 2 50 25 50 23 0 25
3 25 50 0 47 2 50 25 50 24 0 25 2 25 70 0 68 1 70 25 70 23 0 25 3 25 50 0
47 2 50 25 50 23 0 25 3 25 50 0 43 3 50 20 50 16 0 21 9 26 50 5 39 11 50 24
50 14 0 20 11 25 50 6 40 11 50 26 50 16 0 19 7 19 45 0 41 2 45 25 45 22 0
25 4 25 39 0 65 11 101 30 101 13 0 19 12 24 50 5 41 10 50 26 50 17 0 20 7
20 50 0 47 2 50 25 50 23 0 25 3 25 50 0 43 3 50 20 50 16 0 21 9 26 50 5 38
11 50 24 50 18 0 30 41 30 107 0 25 5 32 23 35 19 3 22 10 25 51 3 38 7 47 22
47 14 0 20 10 25 50 5 39 11 50 25 50 14 0 20 11 25 50 6 40 11 50 26 50 16 0
19 7 19 45 0 41 2 45 25 45 23 0 25 3 25 50 0 47 2 50 25 50 23 0 25 3 25 50
0 42 3 50 19 50 20 0 31 34 31 101 0 31 4 38 23 41 19 3 22 10 25 50 3 39 6
47 25 50 19 3 22 10 25 51 3 38 7 47 22 47 14 0 20 10 25 50 5 40 11 50 25 50
15 0 19 9 22 48 3 40 6 47 25 50 19 3 22 11 25 50 3 40 6 47 25 50 19 3 22 11
25 50 3 40 6 47 26 50 20 3 22 9 22 68 0 62 1 64 25 64 23 0 25 3 25 49 0 44
3 50 23 53 16 2 22 10 22 28 0 18 -6 26 -22 28 -19 3 -23 -1 -23 -22z m-5670
-17816 c0 -13 -7 -20 -20 -20 -13 0 -20 7 -20 20 0 13 7 20 20 20 13 0 20 -7
20 -20z"/>
<path d="M16110 13640 c0 -13 7 -20 20 -20 13 0 20 7 20 20 0 13 -7 20 -20 20
-13 0 -20 -7 -20 -20z"/>
</g>
</svg>
